<?xml version="1.0" standalone="no"?><!DOCTYPE svg PUBLIC "-//W3C//DTD SVG 1.1//EN" "http://www.w3.org/Graphics/SVG/1.1/DTD/svg11.dtd"><svg t="1584780805481" class="icon" viewBox="0 0 1024 1024" version="1.1" xmlns="http://www.w3.org/2000/svg" p-id="9427" xmlns:xlink="http://www.w3.org/1999/xlink" width="64" height="64"><defs><style type="text/css"></style></defs><path d="M117.22589374 451.22919538l73.3226477 69.90506667 231.89840782 212.94636752 99.42053926-94.88447715c8.69929718-12.30329173 8.07791882-29.20478341-1.86413511-40.82455894l-91.2804826-78.79077736 0.37282701-0.18641351-98.17778251-93.82813393c-11.55763769-13.04894578-11.18481067-32.31167525 0.86992971-44.73924266l264.70718579-251.65824L476.56900532 14.8973037l-359.15669807 341.26100101c-27.52706181 26.22216723-27.52706181 68.7865856 0 95.07089067h-0.18641351z" fill="#e0620d" p-id="9428"></path><path d="M906.68711329 572.8950803l-73.3226477-70.09148018-231.77413215-212.94636753-99.91764195 94.88447716c-9.13426205 12.42756741-8.51288368 29.20478341 1.8641351 40.82455893l91.34262045 78.29367467h-0.24855135l98.17778252 93.82813393c11.18481067 13.04894578 11.18481067 31.69029689-1.24275674 44.11786429l-264.70718578 251.65824 120.54740385 115.63851473 359.15669808-341.26100101c27.52706181-26.22216723 27.58919965-68.72444777 0-95.07089067l0.12427567 0.12427568z" fill="#e0620d" p-id="9429"></path></svg>